Coordinates
version=1
nRows=15
nColumns=34
inDegrees=yes

Units are S.I. units (second, meters, Newtons, ...)
If the header above contains a line with 'inDegrees', this indicates whether rotational values are in degrees (yes) or radians (no).

endheader
time	pelvis_tilt	pelvis_list	pelvis_rotation	pelvis_tx	pelvis_ty	pelvis_tz	hip_flexion_r	hip_adduction_r	hip_rotation_r	knee_angle_r	ankle_angle_r	subtalar_angle_r	mtp_angle_r	hip_flexion_l	hip_adduction_l	hip_rotation_l	knee_angle_l	ankle_angle_l	subtalar_angle_l	mtp_angle_l	lumbar_extension	lumbar_bending	lumbar_rotation	arm_flex_r	arm_add_r	arm_rot_r	elbow_flex_r	pro_sup_r	arm_flex_l	arm_add_l	arm_rot_l	elbow_flex_l	pro_sup_l
      3.18333330	     -2.41540419	     -1.78886898	      4.20827469	      1.66677898	      1.08554100	      0.02125599	     32.31599966	      4.59000977	     -1.41436921	     24.90668051	      4.26104538	    -16.57407005	      0.00000000	     -5.28790651	      2.59964747	    -11.67021758	      0.00000000	     15.51265436	     10.60947696	      0.00000000	      6.34091761	     -0.45441066	     -8.79354895	     -4.02090557	     -1.86946812	    -11.60880395	     16.26205472	     94.07726951	      0.18677252	     -5.36381962	      1.51465347	     32.84023724	     83.87491478
      3.20000000	     -1.87672622	     -2.40404508	      4.35628249	      1.68211006	      1.08612095	      0.01907753	     30.95683524	      5.42356985	     -1.38140332	     19.00503021	      5.58139007	    -12.88385085	      0.00000000	     -7.42888605	      2.18533462	    -11.53698054	      0.22628865	     16.36974489	     10.62806979	      0.00000000	      5.78605644	      0.54989118	     -9.01343147	     -3.99659624	     -1.99306871	    -11.97249436	     16.47938618	     94.09254516	      0.39953651	     -5.18134413	      1.58839722	     33.53327431	     83.62584588
      3.21666670	     -1.35750466	     -2.93938231	      4.53386379	      1.69655975	      1.08874574	      0.01711828	     29.75803168	      6.10641304	     -1.21004803	     13.98987984	      6.13264263	     -9.18853158	      0.00000000	     -8.96747798	      1.73938505	    -11.69227204	      1.65034898	     18.00073659	     10.75919619	      0.00000000	      5.13095647	      1.48336280	     -9.27247755	     -3.86803965	     -2.13672615	    -12.20480350	     16.75921522	     94.15501610	      0.48760808	     -4.97866480	      1.59651492	     34.21205975	     83.37695293
      3.23333330	     -0.80470729	     -3.41763472	      4.65225593	      1.71091145	      1.09237154	      0.01499268	     28.65725080	      6.67515893	     -0.96355267	     10.05348750	      5.90570906	     -6.26746270	      0.00000000	    -10.23749460	      1.27950436	    -11.73037586	      3.06232847	     19.72641828	     10.81648497	      0.00000000	      4.27068010	      2.36667548	     -9.36816722	     -3.63075399	     -2.27914172	    -12.24321872	     16.98550152	     94.27030644	      0.65345695	     -4.75223613	      1.54326703	     34.82939468	     83.17600461
      3.25000000	     -0.29208845	     -3.83220811	      4.76845386	      1.72495638	      1.09393097	      0.01243699	     27.76473178	      7.08312221	     -0.75476702	      7.33177790	      5.31620853	     -4.41781657	      0.00000000	    -11.26573140	      0.83332363	    -11.71276604	      4.23570830	     21.25588993	     10.89083238	      0.00000000	      3.34575920	      3.21186811	     -9.38257187	     -3.27678432	     -2.43817288	    -12.13019274	     17.14692819	     94.41459395	      0.89273983	     -4.50349581	      1.51207722	     35.30468931	     83.04355318
      3.26666670	     -0.05960866	     -4.20035299	      4.85319029	      1.73836058	      1.09178316	      0.01000445	     27.46185263	      7.35379574	     -0.59842950	      6.04042213	      4.56265205	     -3.88825940	      0.00000000	    -11.89056867	      0.43619545	    -11.71894367	      5.31708997	     22.30703995	     10.88185483	      0.00000000	      2.66144067	      4.07488274	     -9.32607912	     -2.84032759	     -2.68794228	    -12.00458340	     17.22950608	     94.51077309	      1.14419469	     -4.15847113	      1.56338557	     35.55447165	     82.99789034
      3.28333330	      0.38587660	     -4.64671249	      5.01606366	      1.75223786	      1.08927488	      0.00831713	     27.11882701	      7.72020885	     -0.47485878	      5.88173528	      3.69245665	     -4.68400961	      0.00000000	    -12.75416920	     -0.13974013	    -12.01713568	      6.37582903	     22.59524961	     11.36849112	      0.00000000	      1.62148461	      5.00786732	     -9.35984865	     -2.17474498	     -2.92390640	    -11.71013994	     17.33661642	     94.67829916	      1.42144249	     -3.90535093	      1.63765277	     35.68679416	     82.95030072
      3.30000000	      0.62764916	     -5.18656724	      5.16419478	      1.76892701	      1.08731703	      0.00663726	     27.23203610	      8.22098437	     -0.18899297	      6.84052945	      2.29935619	     -7.30226223	      0.00000000	    -13.57072718	     -0.80913103	    -12.60667725	      7.27802920	     21.82848889	     12.06366376	      0.00000000	      0.95015296	      6.04538527	     -9.42620808	     -1.56903222	     -3.18757768	    -11.29947896	     17.37589350	     94.89567522	      1.54368172	     -3.59330190	      1.71623995	     35.62735663	     82.90504152
      3.31666670	      0.72907772	     -5.66517471	      5.26793936	      1.78836301	      1.08687827	      0.00495318	     27.61722670	      8.75034254	      0.14834808	      8.55627304	      0.20376749	    -11.26415318	      0.00000000	    -14.50141271	     -1.39275023	    -13.21389912	      7.85823932	     20.36775491	     12.69787782	      0.00000000	      0.60810660	      6.94450240	     -9.40991365	     -1.12116205	     -3.43928616	    -10.76738017	     17.37422919	     95.18224383	      1.47788456	     -3.26194141	      1.74725718	     35.35829413	     82.84615485
      3.33333330	      0.84593963	     -6.15520671	      5.49880181	      1.81008045	      1.08810582	      0.00337799	     27.75279459	      9.30333529	      0.13027237	     10.30280820	     -2.18723710	    -15.17819967	      0.00000000	    -15.69266723	     -2.04373702	    -13.57429258	      7.98932672	     17.99452576	     13.25373296	      0.00000000	      0.54398290	      7.80723295	     -9.50009218	     -0.87573677	     -3.67465256	    -10.32202659	     17.47377491	     95.44256625	      1.20740967	     -2.91738130	      1.81642130	     34.83094997	     82.80472039
      3.35000000	      0.94853679	     -6.52105963	      5.74907275	      1.83325870	      1.08820782	      0.00248603	     27.59768778	      9.78883395	      0.04500618	     11.91791902	     -4.59764865	    -18.76218023	      0.00000000	    -16.88202904	     -2.65366248	    -13.78045473	      7.89353037	     15.30196888	     13.64671527	      0.00000000	      0.71933618	      8.49195432	     -9.48629796	     -0.84305900	     -3.87919773	     -9.93008149	     17.65298417	     95.68648921	      0.77363544	     -2.58688248	      1.95201822	     34.14076182	     82.77969823
      3.36666670	      1.00603636	     -6.78828945	      5.98342230	      1.85653132	      1.08780234	      0.00226835	     27.18012535	     10.24624577	      0.01153084	     13.31487256	     -6.57583374	    -21.77515225	      0.00000000	    -17.78336641	     -3.30728457	    -13.77572026	      7.94092559	     12.89284070	     13.76838265	      0.00000000	      1.03558598	      8.97156976	     -9.26399039	     -1.01026140	     -4.00033008	     -9.54725143	     17.87343376	     95.93219820	      0.24217633	     -2.34465241	      2.15830800	     33.34255087	     82.76043901
      3.38333330	      1.07177498	     -6.94403813	      6.17872565	      1.87939862	      1.08870009	      0.00220044	     26.54344143	     10.65914888	      0.08070902	     14.55194223	     -8.00277005	    -23.90744903	      0.00000000	    -18.37736376	     -3.98037770	    -13.57586113	      8.32786535	     10.93937604	     13.60986095	      0.00000000	      1.47290728	      9.31358715	     -9.00625097	     -1.26686255	     -4.12442190	     -9.23764892	     18.13308169	     96.14704072	     -0.43057974	     -2.11023517	      2.43753840	     32.44049598	     82.74224034
      3.40000000	      1.21718109	     -7.04209218	      6.37763991	      1.90193109	      1.09128221	      0.00221154	     25.73997889	     11.04232002	      0.02703327	     15.79149994	     -8.07641972	    -24.39129447	      0.00000000	    -18.54209110	     -4.81115726	    -13.38396542	      9.81990290	      9.48516773	     13.64891409	      0.00000000	      1.84402117	      9.53294003	     -8.71112428	     -1.47703632	     -4.13718134	     -9.18700479	     18.14878809	     96.18033738	     -1.30402113	     -1.97739698	      2.51935149	     32.01175646	     82.73952227
      3.41666670	      1.51240070	     -6.95157998	      6.45697913	      1.92240942	      1.09598456	      0.00233389	     24.58096843	     11.33311297	      0.50723116	     16.77358953	     -8.18937398	    -24.81540039	      0.00000000	    -18.29008144	     -5.57752507	    -13.01475137	     12.56240851	      7.85850238	     13.33184857	      0.00000000	      2.07024913	      9.52324111	     -8.39780030	     -1.65381794	     -4.10474393	     -9.11158535	     18.22008364	     96.22067162	     -2.22205741	     -1.91179193	      2.58136541	     31.40370561	     82.73198001
